# xmcd
#
# Track frame offsets:
# 150
# 15718
# 35888
# 55406
# 71057
# 81224
# 97775
# 110134
# 123528
# 138809
# 152527
# 170975
# 188418
# 202833
# 216569
# 232649
#
# Disc length: 3312 seconds
#
#
# Revision: 1
# Processed by: cddbd v1.4PL0 Copyright (c) Steve Scherf et al.
# Submitted via: FreeRIP 2.00 
#
DISCID=dc0cee10
DTITLE=Intocable - 14 grandes exitos
DYEAR=2002
DGENRE=Country
TTITLE0=Eres mi droga
TTITLE1=Fuerte no soy
TTITLE2=Perdedor
TTITLE3=No te vayas
TTITLE4=Muchachita
TTITLE5=El amigo que se fué
TTITLE6=Vete ya
TTITLE7=Soñador eterno
TTITLE8=Amor Maldito
TTITLE9=Coqueta
TTITLE10=Donde estas
TTITLE11=Si se acabo el amor
TTITLE12=Y todo para que
TTITLE13=La mentira
TTITLE14=Regalo de Navidad
TTITLE15=Una navidad sin ti
EXTD=YEAR: 2002 ID3G: 2
EXTT0=
EXTT1=
EXTT2=
EXTT3=
EXTT4=
EXTT5=
EXTT6=
EXTT7=
EXTT8=
EXTT9=
EXTT10=
EXTT11=
EXTT12=
EXTT13=
EXTT14=
EXTT15=
PLAYORDER=
